HIERARCHY
ROOT joint_Root
{
	OFFSET 0.0 0.0 0.0
	CHANNELS 6 Xposition Yposition Zposition Zrotation Xrotation Yrotation 
	JOINT Hips
	{
		OFFSET 4.5925 91.4895 -427.239
		CHANNELS 6 Xposition Yposition Zposition Zrotation Xrotation Yrotation 
		JOINT Spine
		{
			OFFSET 15.7357 0.0 0.0
			CHANNELS 6 Xposition Yposition Zposition Zrotation Xrotation Yrotation 
			JOINT Chest
			{
				OFFSET 8.98455 -0.406207 0.0
				CHANNELS 6 Xposition Yposition Zposition Zrotation Xrotation Yrotation 
				JOINT Neck
				{
					OFFSET 16.3773 0.0 0.0
					CHANNELS 6 Xposition Yposition Zposition Zrotation Xrotation Yrotation 
					JOINT Head
					{
						OFFSET 6.45672 0.0 0.0
						CHANNELS 6 Xposition Yposition Zposition Zrotation Xrotation Yrotation 
						End Site
						{
							OFFSET 0.0 0.0 0.0
						}
					}
				}
				JOINT Shoulder_L
				{
					OFFSET 12.9942 -0.242716 4.98039
					CHANNELS 6 Xposition Yposition Zposition Zrotation Xrotation Yrotation 
					JOINT UpperArm_L
					{
						OFFSET 5.34809 0.0 0.0
						CHANNELS 6 Xposition Yposition Zposition Zrotation Xrotation Yrotation 
						JOINT LowerArm_L
						{
							OFFSET 24.3286 1.87007e-05 0.0
							CHANNELS 6 Xposition Yposition Zposition Zrotation Xrotation Yrotation 
							JOINT Hand_L
							{
								OFFSET 22.2916 0.0 0.0
								CHANNELS 6 Xposition Yposition Zposition Zrotation Xrotation Yrotation 
								End Site
								{
									OFFSET 0.0 0.0 0.0
								}
							}
						}
					}
				}
				JOINT Shoulder_R
				{
					OFFSET 12.9945 -0.242716 -4.98039
					CHANNELS 6 Xposition Yposition Zposition Zrotation Xrotation Yrotation 
					JOINT UpperArm_R
					{
						OFFSET -5.34813 0.0 0.0
						CHANNELS 6 Xposition Yposition Zposition Zrotation Xrotation Yrotation 
						JOINT LowerArm_R
						{
							OFFSET -24.3289 0.000322201 0.0
							CHANNELS 6 Xposition Yposition Zposition Zrotation Xrotation Yrotation 
							JOINT Hand_R
							{
								OFFSET -22.2915 -0.000108084 0.0
								CHANNELS 6 Xposition Yposition Zposition Zrotation Xrotation Yrotation 
								End Site
								{
									OFFSET 0.0 0.0 0.0
								}
							}
						}
					}
				}
			}
		}
		JOINT UpperLeg_L
		{
			OFFSET -2.19248 -6.46944 0.0
			CHANNELS 6 Xposition Yposition Zposition Zrotation Xrotation Yrotation 
			JOINT LowerLeg_L
			{
				OFFSET 39.0811 0.0 -1.23785e-05
				CHANNELS 6 Xposition Yposition Zposition Zrotation Xrotation Yrotation 
				JOINT Foot_L
				{
					OFFSET 40.9854 0.0 -1.26872e-05
					CHANNELS 6 Xposition Yposition Zposition Zrotation Xrotation Yrotation 
					JOINT Toes_L
					{
						OFFSET 11.7543 0.0 0.0
						CHANNELS 6 Xposition Yposition Zposition Zrotation Xrotation Yrotation 
						End Site
						{
							OFFSET 0.0 0.0 0.0
						}
					}
				}
			}
		}
		JOINT UpperLeg_R
		{
			OFFSET -2.19251 6.46944 0.0
			CHANNELS 6 Xposition Yposition Zposition Zrotation Xrotation Yrotation 
			JOINT LowerLeg_R
			{
				OFFSET -39.0811 -0.00228153 -0.0401928
				CHANNELS 6 Xposition Yposition Zposition Zrotation Xrotation Yrotation 
				JOINT Foot_R
				{
					OFFSET -40.9854 0.0 0.0
					CHANNELS 6 Xposition Yposition Zposition Zrotation Xrotation Yrotation 
					JOINT Toes_R
					{
						OFFSET -11.7543 0.0 0.0
						CHANNELS 6 Xposition Yposition Zposition Zrotation Xrotation Yrotation 
						End Site
						{
							OFFSET 0.0 0.0 0.0
						}
					}
				}
			}
		}
	}
}
MOTION
Frames:	8
Frame Time:	0.0333333
0.000000 0.000000 0.000000 0.000000 0.000000 -0.000000 -115.995000 86.718100 192.947000 46.584200 88.162800 45.043200 15.735700 0.000005 -0.000001 48.928800 84.521200 -47.176100 8.984550 -0.406207 -0.000000 0.617600 -7.306030 3.545800 16.377300 -0.000001 -0.000001 -0.259063 -4.311030 1.299950 6.456720 -0.000001 -0.000000 -7.505590 -0.330381 -2.512360 12.994200 -0.242716 4.980390 -90.742800 2.566450 -73.852000 5.348090 -0.000007 -0.000001 -61.504100 40.180000 -21.123200 24.328600 0.000019 0.000005 14.428400 12.579200 -49.752700 22.291600 -0.000001 0.000005 11.955300 5.321480 -0.538556 12.994500 -0.242716 -4.980390 87.804200 7.794560 -74.213300 -5.348130 -0.000001 -0.000004 -65.412000 11.935600 15.588500 -24.328900 0.000322 -0.000009 0.637634 6.604750 -5.535450 -22.291500 -0.000108 -0.000004 13.400000 5.240910 1.671730 -2.192480 -6.469440 -0.000000 -173.447000 -10.214300 7.793790 39.081100 -0.000007 -0.000012 0.011581 -0.013132 41.404800 40.985400 -0.000006 -0.000013 2.612220 13.308400 -65.268000 11.754300 -0.000000 0.000003 -0.226109 -0.686819 -46.222000 -2.192510 6.469440 -0.000001 -171.455000 12.434000 149.798000 -39.081100 -0.002282 -0.040193 -0.024702 0.028283 44.678400 -40.985400 0.000008 0.000006 11.316500 -5.210010 -64.449500 -11.754300 -0.000006 -0.000006 -0.002069 -0.029577 -17.775800
0.000000 0.000000 0.000000 0.000000 0.000000 -0.000000 -111.738000 86.066300 193.452000 0.854333 88.326600 93.471200 15.735700 0.000005 -0.000001 55.679700 84.073200 -53.534500 8.984550 -0.406207 -0.000000 2.169210 -6.783450 4.418860 16.377300 -0.000001 -0.000001 -0.046730 -4.593200 1.464360 6.456720 -0.000001 -0.000000 -7.151770 -1.053300 -2.091630 12.994200 -0.242716 4.980390 -90.916900 3.206080 -74.031400 5.348090 -0.000007 -0.000001 -62.768000 40.771200 -19.841400 24.328600 0.000019 0.000005 14.962100 14.329500 -47.197300 22.291600 -0.000001 0.000005 11.674500 5.327220 -0.704304 12.994500 -0.242716 -4.980390 87.357100 9.422580 -74.253800 -5.348130 -0.000001 -0.000004 -64.216700 13.302900 13.396300 -24.328900 0.000322 -0.000009 0.512361 6.415670 -4.585450 -22.291500 -0.000108 -0.000004 12.813100 5.237350 1.765080 -2.192480 -6.469440 -0.000000 -170.952000 -9.451960 6.327660 39.081100 -0.000007 -0.000012 0.067414 -0.055101 50.737200 40.985400 -0.000006 -0.000013 0.986661 15.729800 -56.257600 11.754300 -0.000000 0.000003 -0.236816 -0.703033 -47.009800 -2.192510 6.469440 -0.000001 -172.108000 10.785900 153.825000 -39.081100 -0.002282 -0.040193 -0.035856 0.034382 48.679500 -40.985400 0.000008 0.000006 9.858630 -8.927700 -69.181300 -11.754300 -0.000006 -0.000006 -0.000354 -0.005753 -16.807500
0.000000 0.000000 0.000000 0.000000 0.000000 -0.000000 -108.120000 85.864200 193.836000 -43.302300 87.330300 139.734000 15.735700 0.000005 -0.000001 59.244700 83.522400 -56.757100 8.984550 -0.406207 -0.000000 3.538450 -6.708710 5.181680 16.377300 -0.000001 -0.000001 0.077997 -4.992870 1.859500 6.456720 -0.000001 -0.000000 -7.002850 -1.279970 -0.991086 12.994200 -0.242716 4.980390 -90.870500 3.135110 -74.473500 5.348090 -0.000007 -0.000001 -66.187400 39.874200 -17.833900 24.328600 0.000019 0.000005 13.853200 15.991900 -41.830900 22.291600 -0.000001 0.000005 12.567000 5.327160 -0.704523 12.994500 -0.242716 -4.980390 87.216100 10.103700 -74.507500 -5.348130 -0.000001 -0.000004 -63.777400 14.780200 9.257490 -24.328900 0.000322 -0.000009 0.535345 7.721230 -3.985740 -22.291500 -0.000108 -0.000004 12.251300 5.211790 2.422230 -2.192480 -6.469440 -0.000000 -170.480000 -5.783860 1.582790 39.081100 -0.000007 -0.000012 0.100233 -0.055774 60.904500 40.985400 -0.000006 -0.000013 -3.176520 14.645900 -44.794300 11.754300 -0.000000 0.000003 -0.079895 -0.391662 -32.837100 -2.192510 6.469440 -0.000001 -172.750000 14.422100 158.152000 -39.081100 -0.002282 -0.040193 -0.056834 0.050386 50.015600 -40.985400 0.000008 0.000006 9.450000 -8.245710 -73.104200 -11.754300 -0.000006 -0.000006 -0.160720 -0.193378 -16.455000
0.000000 0.000000 0.000000 0.000000 0.000000 -0.000000 -105.172000 85.890300 193.985000 -50.117100 86.981300 147.907000 15.735700 0.000005 -0.000001 65.303100 83.305800 -62.666400 8.984550 -0.406207 -0.000000 4.551560 -5.658210 5.495820 16.377300 -0.000001 -0.000001 0.015729 -4.955760 2.463190 6.456720 -0.000001 -0.000000 -6.854400 -1.902430 1.036480 12.994200 -0.242716 4.980390 -90.778200 2.860670 -74.775700 5.348090 -0.000007 -0.000001 -68.451800 39.658900 -17.073800 24.328600 0.000019 0.000005 10.413700 15.768300 -34.067000 22.291600 -0.000001 0.000005 13.762400 5.289670 0.359527 12.994500 -0.242716 -4.980390 87.185000 10.663600 -75.118400 -5.348130 -0.000001 -0.000004 -63.205400 15.622600 4.528000 -24.328900 0.000322 -0.000009 0.758614 8.371920 -5.204800 -22.291500 -0.000108 -0.000004 12.286200 5.204020 2.618520 -2.192480 -6.469440 -0.000000 -170.851000 -3.297290 -4.358130 39.081100 -0.000007 -0.000012 0.122499 -0.045803 69.496500 40.985400 -0.000006 -0.000013 -8.180660 9.731620 -36.931200 11.754300 -0.000000 0.000003 -0.007495 -0.083869 -19.991500 -2.192510 6.469440 -0.000001 -173.845000 17.177500 162.034000 -39.081100 -0.002282 -0.040193 0.023683 -0.017088 50.098800 -40.985400 0.000008 0.000006 9.879550 -6.446080 -75.884100 -11.754300 -0.000006 -0.000006 -0.173485 -0.208888 -16.445300
0.000000 0.000000 0.000000 0.000000 0.000000 -0.000000 -102.238000 86.694700 193.967000 -35.899900 88.236600 134.624000 15.735700 0.000005 -0.000001 73.239200 83.284200 -70.765800 8.984550 -0.406207 -0.000000 5.194030 -3.920600 5.120650 16.377300 -0.000001 -0.000001 0.115359 -4.390040 3.011320 6.456720 -0.000001 -0.000000 -6.441930 -2.299840 3.759370 12.994200 -0.242716 4.980390 -90.727600 2.615710 -74.448700 5.348090 -0.000007 -0.000001 -69.556100 39.465100 -16.160000 24.328600 0.000019 0.000005 7.710270 15.742300 -26.520600 22.291600 -0.000001 0.000005 12.890400 5.254750 1.310400 12.994500 -0.242716 -4.980390 87.301100 11.342500 -76.520900 -5.348130 -0.000001 -0.000004 -62.373000 16.779100 -0.189213 -24.328900 0.000322 -0.000009 0.832074 6.019950 -7.899780 -22.291500 -0.000108 -0.000004 13.572900 5.243610 1.604650 -2.192480 -6.469440 -0.000000 -171.976000 -3.991650 -7.626890 39.081100 -0.000007 -0.000012 0.091244 -0.026306 73.913700 40.985400 -0.000006 -0.000013 -4.031600 5.463360 -45.455000 11.754300 -0.000000 0.000003 -0.008804 -0.094482 -20.425000 -2.192510 6.469440 -0.000001 -175.354000 17.203900 166.930000 -39.081100 -0.002282 -0.040193 0.056289 -0.048876 47.335600 -40.985400 0.000008 0.000006 9.919880 -5.187720 -76.913200 -11.754300 -0.000006 -0.000006 -0.116156 -0.139416 -16.488900
0.000000 0.000000 0.000000 0.000000 0.000000 -0.000000 -99.412900 87.796000 193.822000 78.945300 88.423000 20.312100 15.735700 0.000005 -0.000001 81.832000 83.359100 -79.846900 8.984550 -0.406207 -0.000000 5.419940 -1.923340 4.056880 16.377300 -0.000001 -0.000001 0.371303 -3.323620 3.514000 6.456720 -0.000001 -0.000000 -5.700500 -2.306970 6.094080 12.994200 -0.242716 4.980390 -90.693600 2.394340 -73.840100 5.348090 -0.000007 -0.000001 -70.294600 37.821600 -13.692600 24.328600 0.000019 0.000005 7.300100 19.063400 -21.418400 22.291600 -0.000001 0.000005 9.920850 5.227180 2.028900 12.994500 -0.242716 -4.980390 87.570900 11.721000 -78.204900 -5.348130 -0.000001 -0.000004 -61.542600 18.676600 -5.138830 -24.328900 0.000322 -0.000009 0.481759 2.372460 -11.524200 -22.291500 -0.000108 -0.000004 15.729300 5.301080 0.046193 -2.192480 -6.469440 -0.000000 -173.790000 -5.978940 -10.325900 39.081100 -0.000007 -0.000012 0.075911 -0.021796 73.975500 40.985400 -0.000006 -0.000013 -0.964742 0.484052 -49.949100 11.754300 -0.000000 0.000003 -0.007699 -0.085565 -20.060800 -2.192510 6.469440 -0.000001 -177.392000 16.231400 171.803000 -39.081100 -0.002282 -0.040193 0.110394 -0.113448 43.357900 -40.985400 0.000008 0.000006 10.333100 -3.339420 -77.016100 -11.754300 -0.000006 -0.000006 -0.107713 -0.131161 -16.601800
0.000000 0.000000 0.000000 0.000000 0.000000 -0.000000 -96.893000 88.949000 193.653000 100.370000 85.743600 -1.778430 15.735700 0.000005 -0.000001 89.146000 83.745300 -87.576300 8.984550 -0.406207 -0.000000 4.747130 -0.227410 3.145340 16.377300 -0.000001 -0.000001 0.662373 -2.339780 3.770620 6.456720 -0.000001 -0.000000 -4.844930 -1.948010 7.336870 12.994200 -0.242716 4.980390 -90.657700 2.165200 -73.098500 5.348090 -0.000007 -0.000001 -70.896100 35.169200 -10.264000 24.328600 0.000019 0.000005 7.305490 23.428900 -17.872100 22.291600 -0.000001 0.000005 7.461500 5.221340 2.178580 12.994500 -0.242716 -4.980390 87.959100 11.028800 -79.448400 -5.348130 -0.000001 -0.000004 -60.915600 20.891000 -10.477300 -24.328900 0.000322 -0.000009 0.092070 0.326605 -15.948700 -22.291500 -0.000108 -0.000004 17.543900 5.345720 -1.247510 -2.192480 -6.469440 -0.000000 -175.840000 -7.339350 -13.540200 39.081100 -0.000007 -0.000012 0.056628 -0.019723 70.791700 40.985400 -0.000006 -0.000013 1.638550 -3.066020 -55.156500 11.754300 -0.000000 0.000003 -0.005842 -0.069399 -19.401100 -2.192510 6.469440 -0.000001 -179.287000 15.654900 175.367000 -39.081100 -0.002282 -0.040193 0.081184 -0.097145 38.726800 -40.985400 0.000008 0.000006 10.233300 -0.624205 -76.364400 -11.754300 -0.000006 -0.000006 -0.141457 -0.176694 -16.869700
0.000000 0.000000 0.000000 0.000000 0.000000 -0.000000 -94.531000 89.872800 193.458000 104.247000 83.150200 -6.750290 15.735700 0.000005 -0.000001 95.753500 84.180500 -94.574800 8.984550 -0.406207 -0.000000 3.804410 1.124460 2.317330 16.377300 -0.000001 -0.000001 0.896601 -1.692030 4.103580 6.456720 -0.000001 -0.000000 -4.201260 -1.348200 7.468390 12.994200 -0.242716 4.980390 -90.576700 1.827320 -72.479900 5.348090 -0.000007 -0.000001 -70.963400 32.064800 -6.518680 24.328600 0.000019 0.000005 6.708950 25.519500 -15.271700 22.291600 -0.000001 0.000005 6.871390 5.192390 2.908680 12.994500 -0.242716 -4.980390 88.305200 9.925730 -80.260000 -5.348130 -0.000001 -0.000004 -60.097700 22.989700 -16.198000 -24.328900 0.000322 -0.000009 -0.030634 -0.077725 -20.733600 -22.291500 -0.000108 -0.000004 18.245600 5.372150 -2.053530 -2.192480 -6.469440 -0.000000 -177.557000 -7.623860 -16.376700 39.081100 -0.000007 -0.000012 0.044599 -0.021219 64.550400 40.985400 -0.000006 -0.000013 2.892710 -4.716630 -59.508200 11.754300 -0.000000 0.000003 -0.007288 -0.082127 -19.920400 -2.192510 6.469440 -0.000001 179.043000 15.174100 178.129000 -39.081100 -0.002282 -0.040193 0.055326 -0.076318 34.286200 -40.985400 0.000008 0.000006 10.103700 1.998590 -75.690800 -11.754300 -0.000006 -0.000006 -0.233379 -0.289858 -17.023600
